<?xml version="1.0" standalone="no"?>
<!DOCTYPE svg PUBLIC "-//W3C//DTD SVG 20010904//EN"
 "http://www.w3.org/TR/2001/REC-SVG-20010904/DTD/svg10.dtd">
<svg version="1.0" xmlns="http://www.w3.org/2000/svg"
 width="512.000000pt" height="512.000000pt" viewBox="0 0 512.000000 512.000000"
 preserveAspectRatio="xMidYMid meet">

<g transform="translate(0.000000,512.000000) scale(0.100000,-0.100000)"
fill="#000000" stroke="none">
<path d="M1835 5095 c-14 -13 -25 -34 -25 -46 0 -74 136 -224 308 -340 179
-121 326 -235 383 -296 30 -33 99 -122 154 -199 86 -120 142 -181 405 -444
378 -377 539 -564 723 -835 34 -49 177 -283 318 -520 328 -549 310 -519 337
-523 47 -7 55 14 49 118 -7 120 -34 215 -101 354 -57 121 -540 988 -626 1126
-125 201 -242 331 -731 816 -373 369 -426 411 -634 503 -129 56 -145 67 -287
183 -154 126 -224 153 -273 103z m161 -130 c33 -24 94 -73 137 -108 43 -36
110 -79 150 -97 178 -80 241 -114 314 -169 106 -80 870 -851 961 -969 40 -52
97 -135 129 -185 53 -87 462 -815 571 -1017 51 -96 112 -237 112 -261 0 -8
-104 160 -231 371 -127 212 -261 428 -297 480 -181 262 -348 455 -721 827
-247 248 -313 320 -391 428 -51 72 -115 156 -142 187 -61 71 -193 178 -363
293 -71 49 -153 108 -182 132 -57 49 -130 133 -115 133 5 0 36 -20 68 -45z"/>
<path d="M1233 4919 c-33 -12 -30 -61 11 -144 45 -95 94 -156 306 -390 244
-268 291 -329 456 -585 165 -255 206 -307 384 -495 165 -174 211 -236 302
-403 80 -146 166 -265 369 -514 198 -242 354 -422 541 -625 228 -248 283 -324
425 -588 40 -75 53 -91 75 -93 19 -2 31 3 42 20 21 33 38 138 38 247 1 91 -2
102 -45 211 -165 419 -394 771 -875 1347 -114 136 -275 329 -358 428 -82 99
-267 326 -411 505 -144 179 -281 345 -305 369 -23 24 -89 75 -145 113 -105 71
-194 146 -368 308 -55 52 -144 129 -198 172 -133 106 -196 136 -244 117z m207
-203 c41 -34 138 -119 215 -190 182 -168 232 -210 359 -296 114 -78 118 -82
516 -580 90 -113 241 -297 334 -409 94 -112 247 -294 339 -405 438 -522 690
-907 836 -1274 54 -136 61 -165 54 -239 l-6 -64 -52 90 c-96 163 -173 264
-336 441 -200 217 -363 406 -578 668 -211 259 -275 349 -353 495 -80 151 -153
246 -324 427 -157 166 -232 264 -365 475 -120 191 -210 312 -335 450 -276 304
-320 355 -360 411 -68 95 -62 95 56 0z"/>
<path d="M808 4269 c-11 -6 -18 -22 -18 -39 0 -39 -4 -33 291 -426 141 -188
269 -362 284 -388 15 -25 49 -99 76 -163 26 -64 60 -133 74 -154 14 -21 134
-175 268 -341 302 -377 469 -599 1127 -1498 602 -823 625 -854 713 -937 65
-62 92 -74 115 -51 18 18 15 41 -13 95 -16 30 -34 94 -46 164 -24 136 -47 188
-126 292 -36 47 -72 110 -92 160 -133 331 -474 854 -928 1422 -180 226 -205
251 -324 322 -46 29 -102 68 -123 89 -21 20 -85 109 -143 198 -98 149 -326
456 -550 739 -160 202 -376 412 -507 496 -56 35 -54 34 -78 20z m543 -610
c244 -311 454 -596 530 -716 99 -157 158 -219 274 -288 108 -64 152 -108 327
-330 299 -377 507 -674 679 -965 125 -212 146 -252 205 -388 37 -85 74 -152
123 -218 60 -82 72 -104 86 -170 10 -41 15 -77 12 -80 -7 -7 -10 -3 -587 786
-732 1000 -850 1157 -1215 1610 -205 255 -212 265 -255 375 -56 142 -101 216
-283 460 l-178 240 88 -91 c49 -50 136 -151 194 -225z"/>
<path d="M635 3228 c15 -48 59 -126 114 -203 83 -115 644 -968 866 -1315 268
-421 343 -510 548 -654 114 -81 139 -111 203 -254 93 -205 253 -518 335 -655
87 -145 112 -168 147 -133 14 14 15 28 4 135 -22 225 -102 478 -222 708 -126
241 -232 389 -557 779 -303 364 -351 429 -548 757 -129 214 -200 302 -385 482
-91 88 -207 202 -258 253 -100 101 -136 122 -207 122 -43 0 -46 -1 -40 -22z
m450 -426 c193 -189 227 -233 390 -502 177 -292 243 -381 560 -760 94 -113
202 -245 240 -295 244 -321 403 -648 469 -970 15 -69 -153 250 -270 514 -35
78 -74 157 -86 175 -40 59 -103 118 -193 181 -101 70 -226 195 -297 295 -25
36 -130 198 -233 360 -104 162 -320 494 -481 738 -161 243 -290 442 -286 442
4 0 88 -80 187 -178z"/>
</g>
</svg>
